# xmcd
#
# Track frame offsets: 
#        150
#        17327
#        29588
#        48754
#        65492
#        84947
#        101735
#        116416
#        131832
#        152930
#        167768
#        186198
#        197989
#
# Disc length: 2822 seconds
#
# Revision: 0
# Processed by: cddbd v1.5.2PL0 Copyright (c) Steve Scherf et al.
# Submitted via: ExactAudioCopy v0.95b3
#
DISCID=ab0b040d
DTITLE=SAF - SAF
DYEAR=2010
DGENRE=Jazz
TTITLE0='k Heht gezien
TTITLE1=L'amour du sens unique
TTITLE2=Moedermensaliene
TTITLE3=Den discours
TTITLE4='t Vertellement
TTITLE5=De Meander
TTITLE6=Blijf van mijn Lijf
TTITLE7=Mariely
TTITLE8=Loat ons klinken
TTITLE9=Elk zijn beklacht
TTITLE10='t Schrijfsterske
TTITLE11=Mijn Herte
TTITLE12=Blijf van mijn lijf
EXTD=
EXTT0=
EXTT1=
EXTT2=
EXTT3=
EXTT4=
EXTT5=
EXTT6=
EXTT7=
EXTT8=
EXTT9=
EXTT10=
EXTT11=
EXTT12=
PLAYORDER=
